<svg width="80" height="80" fill="none" xmlns="http://www.w3.org/2000/svg"><path d="M22.638 79H47.95V65.234c-3.886 1.116-8.837 1.842-11.296-.672-1.959-2.005-.923-5.38-1.823-8.022-.692-2.035-4.781-2.69-1.087-5.697-4.004-4.332.995-4.66.557-6.778-.573-2.763-7.122-4.302-4.553-7.454l7.482-8.513c.422-.603.741-1.055 1.253-1.529 2.096 1.94 7.213 1.882 9.926.714-3.371-.64-6.167-.746-8.66-2.673-1.535-1.188-4.093-4.391-4.074-7.687 1.076 1.459 2.86 5.149 4.153 5.48.184-6.253-.717-12.173 3.565-18.081l3.098-3.99C45.787.043 45.105-.34 44.37-.693H22.638v25.557H0v28.579h22.637V79Z" fill="#ED3237"/><path fill-rule="evenodd" clip-rule="evenodd" d="M72.775 51.7c1.3-1.133 2.969-4.236 3.978-6.277 1.159-2.345 2.051-5.16 2.67-7.99 1.493-6.824-.04-12.732-3.037-17.036-1.422-2.043-2.826-3.704-4.835-5.319C65.807 10.46 60.701 7.032 56.605-1c1.414 6.897 7.102 13.538 11.881 17.03 6.302 4.605 10.254 10.537 8.82 20.389-.846 5.816-4.205 13.152-4.53 15.282Z" fill="#ED3237"/><path fill-rule="evenodd" clip-rule="evenodd" d="M68.007 47.701c.164-.611.75-1.8 1.026-2.516 2.471-6.38 2.668-15-2.223-19.473-4.492-4.109-6.724-5.681-9.97-10.76-.512-.802-2.198-3.84-2.38-4.653-.187 3.99 4.27 9.911 6.761 12.775 4.727 5.437 8.61 7.592 7.707 18.807-.173 2.15-.707 3.964-.921 5.82Z" fill="#ED3237"/></svg>