<svg width="96" height="36" fill="none" xmlns="http://www.w3.org/2000/svg">
  <path d="M42.745 1.097c0-.23.08-.426.242-.585.162-.16.36-.24.593-.24.233 0 .43.08.592.24a.79.79 0 0 1 .243.585v14.51h6.842c.233 0 .431.08.593.24a.79.79 0 0 1 .242.584.79.79 0 0 1-.242.584.812.812 0 0 1-.593.24H43.58a.812.812 0 0 1-.593-.24.79.79 0 0 1-.242-.584V1.097ZM59.877.884a1.11 1.11 0 0 1 .296-.412.696.696 0 0 1 .485-.2c.18 0 .341.063.485.187.144.124.251.265.323.425l6.654 15.228c.036.07.054.177.054.319a.807.807 0 0 1-.216.558c-.144.16-.341.24-.593.24-.376 0-.637-.17-.78-.506l-2.156-4.863H56.86l-2.155 4.863a.857.857 0 0 1-.781.505.8.8 0 0 1-.835-.797.7.7 0 0 1 .08-.32L59.878.885Zm.781 2.471-3.07 6.857h6.114l-3.044-6.857Zm9.59-2.259c0-.23.08-.425.242-.584.162-.16.36-.24.593-.24h4.633c1.185 0 2.299.222 3.34.665a8.699 8.699 0 0 1 2.734 1.82 8.574 8.574 0 0 1 1.846 2.698 8.141 8.141 0 0 1 .673 3.295c0 1.17-.224 2.273-.673 3.309a8.529 8.529 0 0 1-1.846 2.71 8.703 8.703 0 0 1-2.734 1.821 8.449 8.449 0 0 1-3.34.665h-4.633a.811.811 0 0 1-.593-.24.79.79 0 0 1-.242-.584V1.096Zm1.67.824v13.687h3.798c.952 0 1.85-.182 2.694-.545a7.117 7.117 0 0 0 2.209-1.475 6.825 6.825 0 0 0 1.481-2.18c.36-.832.539-1.718.539-2.657 0-.939-.18-1.825-.539-2.657a6.826 6.826 0 0 0-3.69-3.641 6.887 6.887 0 0 0-2.694-.532h-3.798Zm12.122-.345a.666.666 0 0 1-.162-.452c0-.213.077-.403.23-.571a.78.78 0 0 1 .605-.253c.306 0 .539.115.7.346l4.526 6.67 4.526-6.67c.161-.23.395-.346.7-.346a.79.79 0 0 1 .593.253.804.804 0 0 1 .107 1.023l-5.09 7.468v7.388a.79.79 0 0 1-.243.584.812.812 0 0 1-.593.24.812.812 0 0 1-.592-.24.79.79 0 0 1-.243-.584V9.043L84.04 1.575ZM42.716 19.96c0-.098.034-.18.103-.249a.346.346 0 0 1 .253-.102c.1 0 .184.034.253.102a.337.337 0 0 1 .103.25v1.904c.176-.151.38-.272.609-.363.23-.09.475-.136.735-.136.284 0 .552.053.805.159a2.038 2.038 0 0 1 1.264 1.882V26.5a.336.336 0 0 1-.104.25.346.346 0 0 1-.253.101.346.346 0 0 1-.252-.102.337.337 0 0 1-.104-.249v-3.094a1.25 1.25 0 0 0-.109-.516 1.337 1.337 0 0 0-.724-.709 1.358 1.358 0 0 0-.523-.102c-.183 0-.355.034-.516.102a1.458 1.458 0 0 0-.426.272 1.217 1.217 0 0 0-.287.403c-.069.155-.107.319-.115.493V26.5c0 .106-.032.19-.098.255a.352.352 0 0 1-.258.096.328.328 0 0 1-.247-.102.394.394 0 0 1-.11-.249v-6.54Zm5.768 4.49c.038.241.119.466.24.674a2.069 2.069 0 0 0 1.793 1.026c.284 0 .548-.051.793-.153a2.14 2.14 0 0 0 .655-.425.347.347 0 0 1 .253-.102c.1 0 .184.034.253.102a.337.337 0 0 1 .103.249.337.337 0 0 1-.103.25c-.253.28-.539.477-.856.595a3.16 3.16 0 0 1-1.098.175 2.787 2.787 0 0 1-1.953-.77 2.652 2.652 0 0 1-.816-1.95c0-.378.071-.731.213-1.06.142-.33.337-.616.586-.862.249-.245.544-.442.885-.59a3.06 3.06 0 0 1 1.108-.243c.36 0 .707.072 1.04.215.333.144.626.34.88.59.252.25.455.538.608.867.153.329.23.682.23 1.06 0 .113-.038.2-.115.26a.385.385 0 0 1-.241.091h-4.458Zm4.067-.703a2.022 2.022 0 0 0-.253-.658 2.017 2.017 0 0 0-.454-.527 2.194 2.194 0 0 0-.609-.351 1.98 1.98 0 0 0-.718-.13c-.252 0-.492.043-.718.13a2.195 2.195 0 0 0-.609.351c-.18.147-.33.323-.448.527a2.105 2.105 0 0 0-.247.658h4.056Zm6.503 2.074a3.59 3.59 0 0 1-.913.72c-.356.2-.741.3-1.155.3a2.78 2.78 0 0 1-1.953-.77 2.654 2.654 0 0 1-.816-1.95c0-.378.071-.735.213-1.072.141-.336.337-.629.586-.878a2.73 2.73 0 0 1 .885-.59c.34-.143.71-.215 1.108-.215.368 0 .719.074 1.052.221a2.862 2.862 0 0 1 1.482 1.468c.15.333.224.688.224 1.066v2.392a.337.337 0 0 1-.103.249.346.346 0 0 1-.253.102.347.347 0 0 1-.253-.102.337.337 0 0 1-.103-.25v-.691Zm0-1.7a2.032 2.032 0 0 0-1.264-1.882 2.061 2.061 0 0 0-.804-.159c-.283 0-.55.053-.798.159a2.085 2.085 0 0 0-.655.436 2.03 2.03 0 0 0-.442 2.234 2.049 2.049 0 0 0 1.097 1.082c.249.106.515.159.798.159.276 0 .537-.051.782-.153a2.07 2.07 0 0 0 1.097-1.066c.111-.245.174-.515.19-.81Zm1.77-4.16c0-.099.035-.182.103-.25a.346.346 0 0 1 .253-.102c.1 0 .184.034.253.102a.337.337 0 0 1 .103.25v6.54a.337.337 0 0 1-.103.25.346.346 0 0 1-.253.101.346.346 0 0 1-.253-.102.337.337 0 0 1-.103-.249v-6.54Zm2.689 0c0-.099.034-.182.103-.25a.346.346 0 0 1 .253-.102c.1 0 .183.034.253.102a.337.337 0 0 1 .103.25v1.383h.766c.101 0 .186.033.255.101a.33.33 0 0 1 .105.25.332.332 0 0 1-.105.25.348.348 0 0 1-.255.101h-.766v4.455a.342.342 0 0 1-.101.25.34.34 0 0 1-.25.101.34.34 0 0 1-.248-.102.343.343 0 0 1-.102-.249v-4.455h-.766a.347.347 0 0 1-.255-.102.332.332 0 0 1-.105-.25c0-.098.034-.18.103-.249a.346.346 0 0 1 .253-.102h.758V19.96Zm2.562 0c0-.099.034-.182.103-.25a.346.346 0 0 1 .253-.102c.1 0 .184.034.253.102a.336.336 0 0 1 .103.25v1.904c.176-.151.38-.272.609-.363.23-.09.475-.136.735-.136.284 0 .552.053.805.159a2.037 2.037 0 0 1 1.264 1.882V26.5a.337.337 0 0 1-.104.25.346.346 0 0 1-.252.101.346.346 0 0 1-.253-.102.337.337 0 0 1-.104-.249v-3.094a1.25 1.25 0 0 0-.109-.516 1.336 1.336 0 0 0-.724-.709 1.359 1.359 0 0 0-.522-.102c-.184 0-.357.034-.517.102a1.456 1.456 0 0 0-.426.272 1.214 1.214 0 0 0-.287.403c-.069.155-.107.319-.115.493V26.5c0 .106-.032.19-.098.255a.351.351 0 0 1-.258.096.328.328 0 0 1-.247-.102.394.394 0 0 1-.11-.249v-6.54Zm7.848 1.417c.306 0 .582.045.827.136.245.09.456.194.632.311.176.117.312.234.408.352.095.117.143.206.143.266a.278.278 0 0 1-.103.215.34.34 0 0 1-.23.091.346.346 0 0 1-.253-.102c-.191-.166-.41-.3-.655-.402a2.042 2.042 0 0 0-.792-.153c-.284 0-.55.053-.799.158a2.032 2.032 0 0 0-1.097 2.67 2.053 2.053 0 0 0 1.097 1.082c.249.106.515.16.799.16.283 0 .547-.052.792-.154.246-.102.464-.244.655-.425a.364.364 0 0 1 .5-.006c.073.065.11.146.11.244 0 .06-.045.15-.133.267a1.52 1.52 0 0 1-.396.345 2.841 2.841 0 0 1-1.528.42c-.383 0-.741-.068-1.075-.204a2.772 2.772 0 0 1-.879-.567 2.648 2.648 0 0 1-.816-1.95 2.692 2.692 0 0 1 .799-1.921c.249-.246.544-.442.885-.59.34-.147.71-.228 1.109-.243Zm7.813 4.443c-.253.28-.557.52-.914.72-.356.2-.74.3-1.154.3a2.783 2.783 0 0 1-1.953-.77 2.657 2.657 0 0 1-.816-1.95c0-.378.07-.735.212-1.072.142-.336.337-.629.586-.878a2.73 2.73 0 0 1 .885-.59c.34-.143.71-.215 1.109-.215.367 0 .718.074 1.051.221a2.866 2.866 0 0 1 1.482 1.468c.15.333.224.688.224 1.066v2.392a.337.337 0 0 1-.103.249.346.346 0 0 1-.253.102.347.347 0 0 1-.253-.102.337.337 0 0 1-.103-.25v-.691Zm0-1.7a2.034 2.034 0 0 0-1.264-1.882 2.06 2.06 0 0 0-.804-.159c-.284 0-.55.053-.8.159a2.083 2.083 0 0 0-.654.436 2.033 2.033 0 0 0-.603 1.446c0 .28.053.542.16.788a2.08 2.08 0 0 0 1.097 1.082c.25.106.516.159.8.159.275 0 .536-.051.78-.153a2.068 2.068 0 0 0 1.098-1.066c.111-.245.175-.515.19-.81Zm1.597-2.426c0-.099.034-.181.103-.25a.346.346 0 0 1 .253-.102c.1 0 .184.035.253.102.069.069.103.151.103.25v.555c.245-.264.54-.481.885-.652.344-.17.72-.255 1.126-.255.123 0 .22.034.293.102.073.068.109.151.109.25a.329.329 0 0 1-.11.25.412.412 0 0 1-.292.101c-.276 0-.532.053-.77.159-.237.106-.446.25-.626.43-.18.182-.326.39-.437.624a1.83 1.83 0 0 0-.178.737V26.5a.337.337 0 0 1-.103.25.346.346 0 0 1-.253.101.346.346 0 0 1-.253-.102.337.337 0 0 1-.103-.249v-4.806Zm4.493 2.755c.038.241.118.466.24.674a2.069 2.069 0 0 0 1.793 1.026c.284 0 .548-.051.793-.153.245-.102.463-.244.655-.425a.347.347 0 0 1 .253-.102c.1 0 .183.034.252.102a.337.337 0 0 1 .104.25.338.338 0 0 1-.103.249c-.253.28-.539.477-.856.595a3.161 3.161 0 0 1-1.098.175 2.786 2.786 0 0 1-1.953-.77 2.651 2.651 0 0 1-.816-1.95c0-.378.071-.731.213-1.06.141-.329.337-.616.586-.862.249-.245.544-.442.884-.59.341-.147.71-.228 1.11-.243.36 0 .706.072 1.04.215.332.144.625.34.878.59.253.25.456.538.61.867.152.329.229.682.229 1.06 0 .113-.039.2-.115.26a.385.385 0 0 1-.241.091h-4.459Zm4.067-.703a2.022 2.022 0 0 0-.253-.658 2.017 2.017 0 0 0-.454-.527 2.193 2.193 0 0 0-.609-.351 1.98 1.98 0 0 0-.718-.13c-.252 0-.492.043-.718.13-.226.087-.43.204-.609.351a1.93 1.93 0 0 0-.448.527 2.105 2.105 0 0 0-.247.658h4.056ZM11.202 34.595H23.73v-5.953c-1.923.483-4.373.797-5.59-.29-.97-.867-.457-2.327-.902-3.47-.343-.88-2.366-1.163-.538-2.463-1.981-1.873.492-2.015.275-2.93-.283-1.196-3.524-1.861-2.253-3.224l3.703-3.682c.209-.26.367-.456.62-.66 1.037.838 3.57.813 4.912.308-1.668-.277-3.052-.323-4.285-1.156-.76-.514-2.026-1.899-2.016-3.324.532.63 1.415 2.226 2.055 2.37.09-2.704-.355-5.264 1.764-7.82L23.007.577c-.35-.125-.687-.29-1.05-.443H11.201v11.052H0v12.358h11.202v11.052Z" fill="#fff"/>
  <path fill-rule="evenodd" clip-rule="evenodd" d="M36.013 22.79c.643-.49 1.469-1.832 1.968-2.715.573-1.014 1.015-2.231 1.321-3.455.74-2.951-.02-5.506-1.502-7.367-.704-.884-1.4-1.602-2.393-2.3-2.843-1.997-5.37-3.48-7.396-6.953.7 2.982 3.514 5.855 5.88 7.364 3.118 1.992 5.073 4.557 4.364 8.817-.419 2.515-2.081 5.688-2.242 6.609Z" fill="#fff"/>
  <path fill-rule="evenodd" clip-rule="evenodd" d="M33.653 21.06c.081-.264.371-.778.508-1.088 1.223-2.759 1.32-6.487-1.1-8.42-2.223-1.777-3.327-2.457-4.933-4.654-.254-.346-1.088-1.66-1.178-2.012-.093 1.726 2.113 4.286 3.345 5.525 2.34 2.35 4.261 3.283 3.814 8.132-.086.93-.35 1.715-.456 2.517Z" fill="#fff"/>
  <path d="M31.507 32.715a.245.245 0 0 1-.178-.072.238.238 0 0 1-.073-.176c0-.069.024-.127.073-.175a.244.244 0 0 1 .178-.072h1.466c.076 0 .135.025.179.075.043.051.064.111.064.18 0 .011-.001.022-.004.032a2.447 2.447 0 0 1-.324.835 2.49 2.49 0 0 1-.567.64 2.643 2.643 0 0 1-2.645.371 2.562 2.562 0 0 1-1.37-1.35 2.447 2.447 0 0 1-.201-.991c0-.352.067-.682.202-.991a2.565 2.565 0 0 1 2.374-1.558 2.565 2.565 0 0 1 2.09 1.055.312.312 0 0 1 .056.167.239.239 0 0 1-.064.156.222.222 0 0 1-.179.076.322.322 0 0 1-.117-.024.26.26 0 0 1-.11-.088c-.258-.298-.531-.514-.817-.647a2.02 2.02 0 0 0-1.67-.04 2.035 2.035 0 0 0-1.101 1.095c-.108.25-.162.516-.162.799a2.038 2.038 0 0 0 1.264 1.886c.254.107.524.16.81.16.227 0 .441-.033.644-.1a2.18 2.18 0 0 0 .559-.276c.17-.117.318-.258.445-.423.127-.165.228-.347.304-.544h-1.126Zm2.762.144c.027.17.084.329.17.476a1.457 1.457 0 0 0 1.264.723c.2 0 .386-.036.56-.108.172-.072.326-.172.461-.3a.244.244 0 0 1 .178-.072c.07 0 .13.024.178.072a.237.237 0 0 1 .073.176c0 .07-.024.128-.073.176-.178.197-.379.337-.603.42a2.228 2.228 0 0 1-.774.123 1.984 1.984 0 0 1-1.377-.543 1.868 1.868 0 0 1-.575-1.375 1.9 1.9 0 0 1 .563-1.355 2.02 2.02 0 0 1 .624-.415c.24-.104.5-.161.781-.172.254 0 .499.05.734.152a2 2 0 0 1 .62.416c.178.175.32.38.429.61.108.233.162.482.162.748a.22.22 0 0 1-.081.184.271.271 0 0 1-.17.064h-3.144Zm2.868-.495a1.423 1.423 0 0 0-.498-.836 1.556 1.556 0 0 0-.43-.247 1.398 1.398 0 0 0-.506-.092c-.178 0-.347.03-.506.091a1.56 1.56 0 0 0-.43.248 1.364 1.364 0 0 0-.315.372 1.485 1.485 0 0 0-.174.464h2.86Zm1.216-1.447a.244.244 0 0 1 .251-.248c.07 0 .13.024.178.072a.238.238 0 0 1 .073.176v.104c.124-.107.267-.192.43-.256a1.4 1.4 0 0 1 .518-.096 1.457 1.457 0 0 1 1.033.42 1.43 1.43 0 0 1 .425 1.019v2.198c0 .069-.024.128-.073.175a.244.244 0 0 1-.178.072.244.244 0 0 1-.178-.072.237.237 0 0 1-.073-.175v-2.198a.877.877 0 0 0-.078-.364.937.937 0 0 0-.51-.5.956.956 0 0 0-.733 0 1.026 1.026 0 0 0-.3.192.856.856 0 0 0-.202.284.95.95 0 0 0-.081.348v2.238c0 .069-.024.128-.073.175a.244.244 0 0 1-.178.072.244.244 0 0 1-.179-.072.238.238 0 0 1-.072-.175v-3.39Zm4.277-1.223c0-.07.024-.128.073-.176a.244.244 0 0 1 .178-.072c.07 0 .13.024.178.072a.237.237 0 0 1 .073.176v.975h.54c.072 0 .131.024.18.072.05.048.074.107.074.176 0 .07-.024.128-.074.176a.245.245 0 0 1-.18.072h-.54v3.14c0 .07-.024.129-.071.176a.24.24 0 0 1-.176.072.24.24 0 0 1-.175-.072.241.241 0 0 1-.072-.175v-3.141h-.54a.245.245 0 0 1-.18-.072.234.234 0 0 1-.074-.176c0-.07.024-.128.073-.176a.244.244 0 0 1 .178-.072h.535v-.975Zm1.895 0c0-.07.025-.128.073-.176a.244.244 0 0 1 .179-.072c.07 0 .13.024.178.072a.237.237 0 0 1 .073.176v4.612c0 .069-.024.128-.073.175a.244.244 0 0 1-.178.072.244.244 0 0 1-.179-.072.238.238 0 0 1-.072-.175v-4.612Zm1.742 3.165c.027.17.084.329.17.476a1.458 1.458 0 0 0 1.264.723c.2 0 .386-.036.56-.108.172-.072.326-.172.46-.3a.244.244 0 0 1 .18-.072c.07 0 .129.024.177.072a.237.237 0 0 1 .073.176c0 .07-.024.128-.073.176-.178.197-.38.337-.603.42a2.228 2.228 0 0 1-.774.123 1.984 1.984 0 0 1-1.377-.543 1.867 1.867 0 0 1-.575-1.375 1.9 1.9 0 0 1 .563-1.355c.175-.173.383-.311.623-.415.24-.104.501-.161.782-.172.254 0 .498.05.733.152a2 2 0 0 1 .62.416c.178.175.321.38.43.61.108.233.161.482.161.748a.22.22 0 0 1-.08.184.27.27 0 0 1-.17.064h-3.144Zm2.868-.495a1.423 1.423 0 0 0-.498-.836 1.557 1.557 0 0 0-.43-.247 1.398 1.398 0 0 0-.506-.092c-.178 0-.347.03-.506.091-.16.062-.303.144-.43.248a1.362 1.362 0 0 0-.316.372 1.485 1.485 0 0 0-.174.464h2.86Zm9.9 1.462a2.532 2.532 0 0 1-.644.508 1.635 1.635 0 0 1-.814.211 1.984 1.984 0 0 1-1.378-.543 1.865 1.865 0 0 1-.575-1.375c0-.266.05-.518.15-.755.1-.237.238-.444.413-.62a1.93 1.93 0 0 1 .624-.415c.24-.101.5-.152.782-.152.259 0 .506.052.741.156a2.016 2.016 0 0 1 1.045 1.035c.105.234.158.485.158.751v1.687c0 .069-.024.127-.073.175a.244.244 0 0 1-.178.072.244.244 0 0 1-.178-.072.238.238 0 0 1-.073-.175v-.488Zm0-1.199a1.437 1.437 0 0 0-.891-1.327 1.454 1.454 0 0 0-.567-.111 1.468 1.468 0 0 0-1.025.42 1.434 1.434 0 0 0-.312 1.574 1.45 1.45 0 0 0 1.337.875 1.461 1.461 0 0 0 1.325-.86c.077-.172.122-.363.133-.57Zm1.126-1.71c0-.07.024-.128.073-.176a.244.244 0 0 1 .178-.072c.07 0 .13.024.178.072a.238.238 0 0 1 .073.176v.391c.173-.186.38-.34.624-.459.243-.12.508-.18.794-.18a.29.29 0 0 1 .206.072.231.231 0 0 1 .077.176.23.23 0 0 1-.077.176.29.29 0 0 1-.206.072c-.195 0-.376.037-.543.112a1.446 1.446 0 0 0-.441.303c-.127.128-.23.275-.308.44-.079.165-.12.338-.126.52v1.766c0 .07-.024.128-.073.176a.244.244 0 0 1-.178.072.244.244 0 0 1-.178-.072.238.238 0 0 1-.073-.176v-3.389Zm3.167 1.942c.027.17.084.33.17.476a1.462 1.462 0 0 0 1.264.723c.2 0 .386-.036.56-.108.172-.072.326-.172.461-.3a.244.244 0 0 1 .178-.072c.07 0 .13.024.178.072a.237.237 0 0 1 .073.176c0 .07-.024.128-.073.176-.178.197-.379.337-.603.42a2.228 2.228 0 0 1-.774.124 1.984 1.984 0 0 1-1.377-.544 1.87 1.87 0 0 1-.575-1.375 1.901 1.901 0 0 1 .563-1.355c.175-.173.383-.311.624-.415.24-.104.5-.161.781-.172.254 0 .499.05.733.152a2 2 0 0 1 .62.416c.178.175.322.38.43.611.108.232.161.48.161.747a.22.22 0 0 1-.08.184.27.27 0 0 1-.17.064h-3.144Zm2.868-.495a1.425 1.425 0 0 0-.498-.836 1.558 1.558 0 0 0-.43-.247 1.398 1.398 0 0 0-.506-.092c-.178 0-.347.03-.506.092-.16.06-.303.144-.43.247a1.36 1.36 0 0 0-.315.372 1.485 1.485 0 0 0-.175.464h2.86Zm6.716-1.679c.26 0 .506.052.741.156a2.014 2.014 0 0 1 1.045 1.035c.106.235.158.485.158.751 0 .261-.051.508-.153.74a2.01 2.01 0 0 1-.418.611 1.942 1.942 0 0 1-1.39.567 1.984 1.984 0 0 1-1.376-.543 1.868 1.868 0 0 1-.576-1.375 1.9 1.9 0 0 1 .563-1.355 2.02 2.02 0 0 1 .624-.415c.24-.104.501-.161.782-.172Zm-.016.504c-.2 0-.388.037-.563.112a1.437 1.437 0 0 0-.887 1.327c0 .196.038.382.113.555a1.449 1.449 0 0 0 1.337.875 1.454 1.454 0 0 0 1.033-.42c.132-.13.236-.282.312-.455.075-.173.113-.358.113-.556a1.435 1.435 0 0 0-.891-1.327 1.453 1.453 0 0 0-.567-.111Zm2.56-.272c0-.07.024-.128.073-.176a.244.244 0 0 1 .178-.072c.07 0 .13.024.178.072a.238.238 0 0 1 .073.176v.391c.173-.186.381-.34.624-.459.243-.12.508-.18.794-.18a.29.29 0 0 1 .206.072.231.231 0 0 1 .078.176.23.23 0 0 1-.078.176.29.29 0 0 1-.206.072c-.194 0-.375.037-.543.112a1.447 1.447 0 0 0-.441.303c-.127.128-.23.275-.308.44-.078.165-.12.338-.126.52v1.766c0 .07-.024.128-.073.176a.244.244 0 0 1-.178.072.244.244 0 0 1-.178-.072.238.238 0 0 1-.073-.176v-3.389Zm9.51-.232c.26 0 .507.052.742.156a2.016 2.016 0 0 1 1.045 1.035c.105.235.158.485.158.751 0 .261-.051.508-.154.74a2.01 2.01 0 0 1-.417.611 1.942 1.942 0 0 1-1.39.567 1.983 1.983 0 0 1-1.377-.543 1.869 1.869 0 0 1-.575-1.375 1.899 1.899 0 0 1 .563-1.355c.176-.173.384-.311.624-.415.24-.104.5-.161.782-.172Zm-.015.504c-.2 0-.388.037-.564.112a1.435 1.435 0 0 0-.773 1.882 1.449 1.449 0 0 0 1.337.875 1.46 1.46 0 0 0 1.345-.875c.075-.173.113-.358.113-.556a1.437 1.437 0 0 0-.891-1.327 1.453 1.453 0 0 0-.567-.111Zm2.657-.264c0-.07.024-.128.073-.176a.245.245 0 0 1 .178-.072c.07 0 .13.024.178.072a.238.238 0 0 1 .073.176v2.19c0 .128.026.249.077.363a.937.937 0 0 0 .51.5.957.957 0 0 0 .733 0 .94.94 0 0 0 .583-.823v-2.23c0-.07.025-.128.074-.176a.244.244 0 0 1 .178-.072c.07 0 .13.024.178.072a.238.238 0 0 1 .073.176v3.38c0 .07-.024.129-.073.176a.244.244 0 0 1-.178.072.244.244 0 0 1-.178-.072.238.238 0 0 1-.073-.175v-.104a1.5 1.5 0 0 1-.43.256 1.398 1.398 0 0 1-.518.096 1.454 1.454 0 0 1-1.033-.42 1.433 1.433 0 0 1-.425-1.02v-2.19Zm-34.082-.232c.216 0 .41.032.583.096s.322.137.446.22c.124.082.22.165.288.247.067.083.1.146.1.188 0 .059-.023.11-.072.152a.24.24 0 0 1-.162.064.245.245 0 0 1-.178-.072 1.69 1.69 0 0 0-.462-.284 1.439 1.439 0 0 0-.56-.107c-.199 0-.387.037-.562.111a1.434 1.434 0 0 0-.774 1.882 1.45 1.45 0 0 0 1.337.876c.2 0 .386-.036.559-.108.173-.072.326-.172.462-.3a.256.256 0 0 1 .352-.004.219.219 0 0 1 .077.172c0 .043-.031.105-.093.188a1.07 1.07 0 0 1-.28.244 1.971 1.971 0 0 1-1.077.295 1.987 1.987 0 0 1-1.377-.543 1.864 1.864 0 0 1-.576-1.375 1.903 1.903 0 0 1 .563-1.355 2.02 2.02 0 0 1 .624-.415c.24-.104.501-.161.782-.172Zm15.562-.192a1.036 1.036 0 0 1 .308-.743c.097-.096.21-.172.34-.228.13-.056.27-.084.422-.084.07 0 .13.024.178.072a.238.238 0 0 1 .073.176c0 .07-.025.128-.073.176a.244.244 0 0 1-.178.072.55.55 0 0 0-.401.164.535.535 0 0 0-.166.395v.168h.55c.07 0 .13.024.179.072a.238.238 0 0 1 .073.176c0 .07-.025.128-.073.176a.244.244 0 0 1-.179.072h-.55v3.14c0 .07-.025.129-.073.176a.244.244 0 0 1-.179.072.244.244 0 0 1-.178-.072.238.238 0 0 1-.073-.175v-3.141h-.332a.244.244 0 0 1-.178-.072.237.237 0 0 1-.073-.176c0-.07.024-.128.073-.176a.244.244 0 0 1 .178-.072h.332v-.168Zm12.84.32a.208.208 0 0 1 .09-.104.258.258 0 0 1 .138-.04c.075 0 .136.025.182.076a.24.24 0 0 1 .069.164.21.21 0 0 1-.025.096l-1.847 4.827c-.043.107-.118.16-.226.16a.234.234 0 0 1-.183-.076.25.25 0 0 1-.052-.26l.486-1.31-.576-1.555a187.194 187.194 0 0 0-.59-1.586 2.868 2.868 0 0 1-.066-.184.245.245 0 0 1-.024-.112c0-.07.02-.127.06-.172.041-.045.1-.068.175-.068.06 0 .11.014.154.04a.207.207 0 0 1 .089.104l1.053 2.837 1.094-2.837Z" fill="#fff"/>
</svg>
