<svg width="96" height="36" fill="none" xmlns="http://www.w3.org/2000/svg"><path d="M42.745 1.096c0-.23.08-.425.242-.584.162-.16.36-.24.593-.24.233 0 .43.08.592.24a.79.79 0 0 1 .243.584v14.51h6.842c.233 0 .431.08.593.24a.79.79 0 0 1 .242.585.79.79 0 0 1-.242.584.812.812 0 0 1-.593.24H43.58a.812.812 0 0 1-.593-.24.79.79 0 0 1-.242-.584V1.096ZM59.877.884c.054-.142.152-.28.296-.412a.696.696 0 0 1 .485-.2c.18 0 .341.063.485.187.144.124.251.265.323.425l6.654 15.228c.036.07.054.177.054.319a.808.808 0 0 1-.216.558c-.144.16-.341.24-.593.24-.377 0-.637-.17-.78-.506l-2.156-4.863H56.86l-2.155 4.863a.858.858 0 0 1-.781.505.8.8 0 0 1-.835-.797.7.7 0 0 1 .08-.32L59.877.885Zm.781 2.471-3.07 6.857h6.114l-3.044-6.857Zm9.59-2.259c0-.23.08-.425.242-.584.162-.16.36-.24.593-.24h4.633c1.185 0 2.299.222 3.34.665a8.7 8.7 0 0 1 2.734 1.82 8.574 8.574 0 0 1 1.846 2.698 8.141 8.141 0 0 1 .673 3.295c0 1.17-.224 2.272-.673 3.309a8.528 8.528 0 0 1-1.846 2.71 8.704 8.704 0 0 1-2.734 1.821 8.447 8.447 0 0 1-3.34.665h-4.633a.812.812 0 0 1-.593-.24.79.79 0 0 1-.242-.584V1.096Zm1.67.824v13.687h3.798c.952 0 1.85-.182 2.694-.545a7.117 7.117 0 0 0 2.209-1.475 6.826 6.826 0 0 0 1.481-2.18 6.64 6.64 0 0 0 .539-2.657c0-.939-.18-1.825-.539-2.657a6.826 6.826 0 0 0-3.69-3.641 6.887 6.887 0 0 0-2.694-.532h-3.798Zm12.122-.345a.666.666 0 0 1-.162-.452c0-.213.076-.403.23-.571a.779.779 0 0 1 .605-.253c.306 0 .539.115.7.346l4.526 6.67 4.526-6.67c.161-.23.395-.346.7-.346a.79.79 0 0 1 .592.253.804.804 0 0 1 .108 1.023l-5.09 7.468v7.388a.79.79 0 0 1-.243.584.812.812 0 0 1-.593.24.812.812 0 0 1-.593-.24.79.79 0 0 1-.242-.584V9.043L84.04 1.575ZM42.715 19.96c0-.098.035-.18.104-.249a.347.347 0 0 1 .253-.102c.1 0 .183.034.252.102a.337.337 0 0 1 .104.25v1.904c.176-.151.38-.272.609-.363.23-.09.475-.136.735-.136.284 0 .552.053.805.159a2.038 2.038 0 0 1 1.264 1.882V26.5a.337.337 0 0 1-.104.25.346.346 0 0 1-.253.101.347.347 0 0 1-.253-.101.338.338 0 0 1-.103-.25v-3.094a1.25 1.25 0 0 0-.109-.516 1.335 1.335 0 0 0-.724-.708 1.357 1.357 0 0 0-.523-.103c-.183 0-.356.034-.517.102a1.454 1.454 0 0 0-.425.272 1.22 1.22 0 0 0-.287.403c-.069.155-.107.319-.115.493V26.5c0 .106-.033.19-.098.255a.351.351 0 0 1-.258.096.328.328 0 0 1-.247-.101.396.396 0 0 1-.11-.25v-6.54Zm5.769 4.49c.038.241.118.466.24.674a2.069 2.069 0 0 0 1.793 1.026c.284 0 .548-.051.793-.153.245-.102.463-.244.655-.425a.347.347 0 0 1 .253-.102c.1 0 .184.034.252.102a.337.337 0 0 1 .104.25.338.338 0 0 1-.103.249c-.253.28-.539.477-.856.595a3.16 3.16 0 0 1-1.098.175 2.784 2.784 0 0 1-1.953-.77 2.65 2.65 0 0 1-.816-1.95c0-.378.07-.731.213-1.06a2.7 2.7 0 0 1 .586-.862c.249-.245.544-.442.884-.59.341-.147.71-.228 1.11-.243.36 0 .706.072 1.039.215.333.144.626.34.88.59.252.25.455.538.608.867.153.329.23.682.23 1.06 0 .113-.039.2-.115.26a.385.385 0 0 1-.242.091h-4.458Zm4.067-.703a2.019 2.019 0 0 0-.253-.658 2.017 2.017 0 0 0-.454-.527 2.193 2.193 0 0 0-.609-.351 1.98 1.98 0 0 0-.718-.13c-.253 0-.492.043-.718.13a2.193 2.193 0 0 0-.609.351c-.18.147-.33.323-.448.527a2.107 2.107 0 0 0-.247.658h4.056Zm6.503 2.074c-.252.28-.557.52-.913.72-.356.2-.741.3-1.155.3a2.78 2.78 0 0 1-1.953-.77 2.652 2.652 0 0 1-.816-1.95c0-.378.071-.735.213-1.071.141-.337.337-.63.586-.879.249-.25.544-.446.884-.59.341-.143.71-.215 1.11-.215.367 0 .718.074 1.05.221a2.861 2.861 0 0 1 1.482 1.468c.15.333.225.688.225 1.066v2.392a.337.337 0 0 1-.103.249.346.346 0 0 1-.253.102.347.347 0 0 1-.253-.102.337.337 0 0 1-.103-.25v-.69Zm0-1.7a2.032 2.032 0 0 0-1.264-1.882 2.06 2.06 0 0 0-.804-.159c-.283 0-.55.053-.798.159a2.082 2.082 0 0 0-.655.436 2.027 2.027 0 0 0-.443 2.234 2.05 2.05 0 0 0 1.098 1.082c.249.106.515.159.798.159.276 0 .537-.051.782-.153a2.069 2.069 0 0 0 1.097-1.066c.111-.245.174-.515.19-.81Zm1.77-4.16c0-.099.034-.182.103-.25a.347.347 0 0 1 .253-.102c.1 0 .184.034.253.102a.337.337 0 0 1 .103.25v6.54a.338.338 0 0 1-.103.25.347.347 0 0 1-.253.101.347.347 0 0 1-.253-.101.337.337 0 0 1-.103-.25v-6.54Zm2.688 0c0-.099.035-.182.104-.25a.346.346 0 0 1 .253-.102c.1 0 .183.034.252.102a.336.336 0 0 1 .104.25v1.383h.766c.101 0 .186.033.255.101a.33.33 0 0 1 .105.25.332.332 0 0 1-.105.25.348.348 0 0 1-.255.101h-.766v4.455a.342.342 0 0 1-.102.25.34.34 0 0 1-.249.101.34.34 0 0 1-.249-.102.343.343 0 0 1-.101-.249v-4.455h-.766a.347.347 0 0 1-.255-.102.332.332 0 0 1-.105-.25c0-.098.034-.18.103-.248a.346.346 0 0 1 .253-.103h.758V19.96Zm2.563 0c0-.099.034-.182.103-.25a.346.346 0 0 1 .253-.102c.1 0 .184.034.252.102a.336.336 0 0 1 .104.25v1.904c.176-.151.38-.272.609-.363.23-.09.475-.136.735-.136.284 0 .552.053.805.159a2.034 2.034 0 0 1 1.264 1.882V26.5a.338.338 0 0 1-.104.25.346.346 0 0 1-.253.101.347.347 0 0 1-.252-.101.337.337 0 0 1-.104-.25v-3.094c0-.182-.036-.354-.109-.516a1.335 1.335 0 0 0-.724-.708 1.357 1.357 0 0 0-.523-.103c-.183 0-.356.034-.517.102-.16.068-.302.159-.425.272a1.216 1.216 0 0 0-.287.403c-.069.155-.107.319-.115.493V26.5c0 .106-.033.19-.098.255a.351.351 0 0 1-.258.096.328.328 0 0 1-.247-.101.394.394 0 0 1-.11-.25v-6.54Zm7.847 1.417c.307 0 .583.045.828.136.245.09.456.194.632.311.176.117.312.234.408.352.095.117.143.206.143.266a.278.278 0 0 1-.103.215.34.34 0 0 1-.23.091.346.346 0 0 1-.253-.102 2.39 2.39 0 0 0-.655-.402 2.044 2.044 0 0 0-.792-.153c-.284 0-.55.053-.8.158a2.032 2.032 0 0 0-1.097 2.67 2.051 2.051 0 0 0 1.098 1.082c.249.106.515.16.799.16.283 0 .547-.052.792-.154.246-.102.464-.243.655-.425a.364.364 0 0 1 .5-.006.31.31 0 0 1 .11.244c0 .06-.045.15-.133.267-.088.117-.22.232-.397.345a2.845 2.845 0 0 1-1.528.42c-.382 0-.74-.068-1.074-.204a2.776 2.776 0 0 1-.879-.567 2.648 2.648 0 0 1-.816-1.95 2.692 2.692 0 0 1 .799-1.921c.249-.246.544-.442.885-.59.34-.147.71-.228 1.109-.243Zm7.814 4.443c-.253.28-.558.52-.914.72-.356.2-.74.3-1.154.3a2.78 2.78 0 0 1-1.953-.77 2.656 2.656 0 0 1-.817-1.95c0-.378.071-.735.213-1.071.142-.337.337-.63.586-.879.249-.25.544-.446.885-.59.34-.143.71-.215 1.109-.215.367 0 .718.074 1.05.221a2.865 2.865 0 0 1 1.482 1.468c.15.333.225.688.225 1.066v2.392a.337.337 0 0 1-.103.249.346.346 0 0 1-.253.102.347.347 0 0 1-.253-.102.337.337 0 0 1-.103-.25v-.69Zm0-1.7a2.031 2.031 0 0 0-1.264-1.882 2.06 2.06 0 0 0-.805-.159c-.283 0-.55.053-.798.159a2.079 2.079 0 0 0-.655.436 2.033 2.033 0 0 0-.603 1.446c0 .28.053.542.16.788a2.052 2.052 0 0 0 1.098 1.082c.249.106.515.159.798.159.276 0 .537-.051.782-.153a2.067 2.067 0 0 0 1.097-1.066c.111-.245.174-.515.19-.81Zm1.597-2.426c0-.099.034-.181.103-.25a.346.346 0 0 1 .253-.101c.1 0 .184.034.253.101.069.069.103.151.103.25v.555c.245-.264.54-.481.885-.652.344-.17.72-.255 1.126-.255.122 0 .22.034.293.102.072.068.109.151.109.25a.329.329 0 0 1-.11.25.411.411 0 0 1-.292.101c-.276 0-.532.053-.77.159-.237.106-.446.25-.626.43-.18.182-.326.39-.437.624-.11.234-.17.48-.178.737V26.5a.337.337 0 0 1-.103.25.347.347 0 0 1-.253.101.346.346 0 0 1-.253-.102.337.337 0 0 1-.103-.249v-4.806Zm4.492 2.755c.039.241.12.466.242.674a2.067 2.067 0 0 0 1.792 1.026c.284 0 .548-.051.793-.153.245-.102.463-.244.655-.425a.346.346 0 0 1 .253-.102c.1 0 .183.034.252.102a.337.337 0 0 1 .104.25.338.338 0 0 1-.104.249c-.252.28-.538.478-.855.595a3.162 3.162 0 0 1-1.098.176 2.782 2.782 0 0 1-1.953-.77 2.65 2.65 0 0 1-.816-1.951c0-.378.07-.731.213-1.06a2.7 2.7 0 0 1 .586-.862c.248-.245.544-.442.884-.59.341-.147.71-.228 1.11-.243.36 0 .706.072 1.039.215.333.144.626.34.879.59.253.25.456.538.609.867.153.329.23.682.23 1.06 0 .114-.039.2-.115.26a.384.384 0 0 1-.242.091h-4.458Zm4.068-.703a2.02 2.02 0 0 0-.253-.658 2.016 2.016 0 0 0-.454-.527 2.192 2.192 0 0 0-.609-.351 1.98 1.98 0 0 0-.718-.13c-.253 0-.492.043-.718.13-.226.087-.43.204-.61.351-.179.148-.329.323-.447.527a2.107 2.107 0 0 0-.247.658h4.056Z" fill="#0885A2"/><path d="M11.202 34.595H23.73v-5.953c-1.923.483-4.374.797-5.59-.29-.97-.867-.457-2.327-.902-3.47-.343-.88-2.366-1.163-.538-2.463-1.982-1.873.492-2.015.275-2.931-.283-1.195-3.524-1.86-2.253-3.224l3.703-3.681c.208-.26.367-.456.62-.661 1.037.839 3.57.814 4.912.309-1.669-.277-3.052-.323-4.285-1.156-.76-.514-2.026-1.9-2.017-3.324.533.63 1.416 2.226 2.056 2.37.09-2.704-.355-5.265 1.764-7.82L23.007.576c-.35-.125-.687-.29-1.05-.443H11.201v11.052H0v12.358h11.202v11.052Z" fill="#ED3237"/><path fill-rule="evenodd" clip-rule="evenodd" d="M36.013 22.79c.643-.49 1.469-1.832 1.968-2.715.573-1.014 1.015-2.231 1.321-3.455.739-2.951-.02-5.506-1.502-7.367-.704-.884-1.4-1.602-2.393-2.3-2.843-1.997-5.37-3.48-7.396-6.953.7 2.983 3.514 5.855 5.88 7.365 3.117 1.99 5.073 4.556 4.364 8.816-.419 2.516-2.081 5.688-2.242 6.609Z" fill="#ED3237"/><path fill-rule="evenodd" clip-rule="evenodd" d="M33.653 21.06c.081-.264.371-.778.508-1.088 1.223-2.759 1.32-6.487-1.1-8.42-2.223-1.777-3.327-2.457-4.933-4.653-.254-.347-1.088-1.66-1.178-2.013-.093 1.726 2.113 4.286 3.345 5.525 2.34 2.35 4.261 3.283 3.814 8.132-.086.93-.35 1.715-.456 2.517Z" fill="#ED3237"/><path d="M31.507 32.715a.245.245 0 0 1-.178-.072.238.238 0 0 1-.073-.175c0-.07.024-.128.073-.176a.244.244 0 0 1 .178-.072h1.466c.076 0 .135.025.178.076.044.05.065.11.065.18a.13.13 0 0 1-.004.032 2.447 2.447 0 0 1-.324.835 2.49 2.49 0 0 1-.567.639 2.646 2.646 0 0 1-1.64.571 2.602 2.602 0 0 1-1.823-.743 2.563 2.563 0 0 1-.551-.807 2.447 2.447 0 0 1-.202-.991c0-.352.067-.682.202-.991a2.565 2.565 0 0 1 2.374-1.558 2.565 2.565 0 0 1 2.09 1.055.312.312 0 0 1 .056.167.239.239 0 0 1-.064.156.222.222 0 0 1-.179.076.322.322 0 0 1-.117-.024.26.26 0 0 1-.11-.088c-.259-.298-.531-.514-.818-.647a2.02 2.02 0 0 0-1.669-.04 2.035 2.035 0 0 0-1.101 1.095c-.108.25-.162.517-.162.799a2.04 2.04 0 0 0 .604 1.45c.186.185.406.33.66.436.253.107.523.16.81.16.226 0 .441-.033.644-.1.202-.066.389-.158.559-.276.17-.117.318-.258.445-.423.127-.165.228-.346.304-.544h-1.126Zm2.762.144c.027.17.084.33.17.476a1.459 1.459 0 0 0 1.264.723c.2 0 .386-.036.56-.108a1.51 1.51 0 0 0 .461-.3.244.244 0 0 1 .178-.072c.07 0 .13.024.178.072a.237.237 0 0 1 .073.176c0 .07-.024.128-.073.176-.178.197-.379.337-.603.42a2.23 2.23 0 0 1-.774.124 1.984 1.984 0 0 1-1.377-.544 1.868 1.868 0 0 1-.575-1.375 1.9 1.9 0 0 1 .563-1.355 2.02 2.02 0 0 1 .624-.415c.24-.104.5-.161.781-.172.254 0 .499.05.733.152.236.101.442.24.62.416.178.175.322.38.43.611.108.232.162.48.162.747a.22.22 0 0 1-.081.184.271.271 0 0 1-.17.064h-3.144Zm2.868-.495a1.425 1.425 0 0 0-.498-.836 1.554 1.554 0 0 0-.43-.247 1.398 1.398 0 0 0-.506-.092c-.178 0-.347.03-.506.092-.16.061-.303.144-.43.247a1.36 1.36 0 0 0-.315.372 1.49 1.49 0 0 0-.174.464h2.86Zm1.215-1.447c0-.07.025-.128.073-.176a.244.244 0 0 1 .179-.072c.07 0 .13.024.178.072a.238.238 0 0 1 .073.176v.104c.124-.107.267-.192.43-.256a1.4 1.4 0 0 1 .518-.096 1.457 1.457 0 0 1 1.033.42 1.43 1.43 0 0 1 .425 1.019v2.198c0 .069-.025.128-.073.176a.244.244 0 0 1-.178.072.244.244 0 0 1-.179-.072.238.238 0 0 1-.073-.176v-2.198a.877.877 0 0 0-.077-.364.937.937 0 0 0-.51-.5.956.956 0 0 0-.733 0 1.026 1.026 0 0 0-.3.192.855.855 0 0 0-.202.284.948.948 0 0 0-.081.348v2.238c0 .07-.025.128-.073.176a.244.244 0 0 1-.178.072.244.244 0 0 1-.179-.072.237.237 0 0 1-.073-.176v-3.389Zm4.278-1.223c0-.07.024-.128.073-.176a.244.244 0 0 1 .178-.072c.07 0 .13.024.178.072a.238.238 0 0 1 .073.176v.975h.54c.072 0 .131.024.18.072.05.048.074.107.074.176 0 .07-.024.128-.074.176a.245.245 0 0 1-.18.072h-.54v3.14c0 .07-.024.129-.071.177a.24.24 0 0 1-.176.072.24.24 0 0 1-.175-.072.241.241 0 0 1-.072-.176v-3.141h-.54a.245.245 0 0 1-.18-.072.234.234 0 0 1-.074-.176c0-.07.024-.128.073-.176a.244.244 0 0 1 .178-.072h.535v-.975Zm1.895 0c0-.07.025-.128.073-.176a.244.244 0 0 1 .179-.072c.07 0 .13.024.178.072a.238.238 0 0 1 .073.176v4.612c0 .07-.025.128-.073.176a.244.244 0 0 1-.178.072.244.244 0 0 1-.179-.072.237.237 0 0 1-.073-.176v-4.612Zm1.742 3.165c.027.17.084.33.17.476a1.46 1.46 0 0 0 1.264.723c.2 0 .386-.036.559-.108.173-.072.327-.172.462-.3a.244.244 0 0 1 .178-.072c.07 0 .13.024.178.072a.237.237 0 0 1 .073.176c0 .07-.024.128-.073.176-.178.197-.38.337-.603.42a2.23 2.23 0 0 1-.774.124 1.984 1.984 0 0 1-1.377-.544 1.867 1.867 0 0 1-.575-1.375 1.9 1.9 0 0 1 .563-1.355c.175-.173.383-.311.623-.415.24-.104.501-.161.782-.172.254 0 .498.05.733.152.235.101.442.24.62.416.178.175.321.38.43.611.107.232.161.48.161.747a.22.22 0 0 1-.08.184.27.27 0 0 1-.17.064h-3.144Zm2.868-.495a1.425 1.425 0 0 0-.498-.836 1.554 1.554 0 0 0-.43-.247 1.398 1.398 0 0 0-.506-.092c-.178 0-.347.03-.506.092-.16.061-.303.144-.43.247a1.36 1.36 0 0 0-.316.372 1.487 1.487 0 0 0-.174.464h2.86Zm9.9 1.462a2.528 2.528 0 0 1-.644.508 1.635 1.635 0 0 1-.815.212 1.984 1.984 0 0 1-1.377-.544 1.865 1.865 0 0 1-.575-1.375c0-.266.05-.518.15-.755.1-.237.237-.444.413-.62.176-.175.384-.314.624-.415.24-.101.5-.152.782-.152.259 0 .506.052.74.156a2.014 2.014 0 0 1 1.045 1.035c.106.235.159.485.159.751v1.687c0 .069-.024.128-.073.175a.244.244 0 0 1-.178.073.244.244 0 0 1-.178-.072.237.237 0 0 1-.073-.176v-.488Zm0-1.199a1.435 1.435 0 0 0-.891-1.327 1.454 1.454 0 0 0-.568-.111c-.2 0-.387.037-.563.112a1.432 1.432 0 0 0-.774 1.882 1.45 1.45 0 0 0 1.337.875 1.46 1.46 0 0 0 1.325-.86c.078-.172.123-.363.134-.57Zm1.126-1.71c0-.07.024-.128.073-.176a.244.244 0 0 1 .178-.072c.07 0 .13.024.178.072a.238.238 0 0 1 .073.176v.392c.173-.187.38-.34.624-.46.243-.12.507-.18.794-.18a.29.29 0 0 1 .206.072.231.231 0 0 1 .077.176.23.23 0 0 1-.077.176.29.29 0 0 1-.206.072c-.195 0-.376.037-.543.112a1.444 1.444 0 0 0-.442.304c-.126.127-.23.274-.307.44-.079.164-.12.338-.126.519v1.766c0 .07-.024.128-.073.176a.244.244 0 0 1-.178.072.244.244 0 0 1-.178-.072.238.238 0 0 1-.073-.176v-3.389Zm3.167 1.942c.027.17.084.33.17.476a1.458 1.458 0 0 0 1.264.723c.2 0 .386-.036.56-.108a1.51 1.51 0 0 0 .46-.3.244.244 0 0 1 .18-.072c.07 0 .129.025.177.072a.237.237 0 0 1 .073.176c0 .07-.024.128-.073.176-.178.197-.38.337-.603.42a2.23 2.23 0 0 1-.774.124 1.984 1.984 0 0 1-1.377-.544 1.867 1.867 0 0 1-.575-1.375 1.9 1.9 0 0 1 .563-1.355c.175-.172.383-.311.623-.415.24-.104.501-.161.782-.172.254 0 .498.05.733.152a2 2 0 0 1 .62.416c.178.175.321.38.43.611.107.232.161.48.161.747a.22.22 0 0 1-.08.184.27.27 0 0 1-.17.064h-3.144Zm2.868-.495a1.427 1.427 0 0 0-.498-.835 1.557 1.557 0 0 0-.43-.248 1.398 1.398 0 0 0-.506-.092c-.178 0-.347.03-.506.092-.16.061-.303.144-.43.248a1.36 1.36 0 0 0-.316.371 1.487 1.487 0 0 0-.174.464h2.86Zm6.716-1.679c.26 0 .506.052.741.156a2.014 2.014 0 0 1 1.045 1.035c.106.235.158.485.158.751 0 .261-.051.508-.154.74a2.01 2.01 0 0 1-.417.611 1.944 1.944 0 0 1-1.39.568 1.984 1.984 0 0 1-1.376-.544 1.868 1.868 0 0 1-.576-1.375 1.9 1.9 0 0 1 .563-1.355c.176-.173.384-.311.624-.415.24-.104.501-.161.782-.172Zm-.016.504c-.2 0-.388.037-.563.112a1.435 1.435 0 0 0-.774 1.882 1.449 1.449 0 0 0 1.337.875 1.454 1.454 0 0 0 1.033-.42c.132-.13.236-.282.311-.455.076-.173.114-.358.114-.556a1.435 1.435 0 0 0-.891-1.327 1.454 1.454 0 0 0-.567-.111Zm2.56-.272c0-.07.024-.128.073-.176a.244.244 0 0 1 .178-.072c.07 0 .13.024.178.072a.238.238 0 0 1 .073.176v.392c.173-.187.38-.34.624-.46.243-.12.508-.18.794-.18a.29.29 0 0 1 .206.072.231.231 0 0 1 .077.176.23.23 0 0 1-.077.176.29.29 0 0 1-.206.072c-.195 0-.376.037-.543.112a1.445 1.445 0 0 0-.441.304c-.127.127-.23.274-.308.44-.079.164-.12.338-.126.519v1.766c0 .07-.024.128-.073.176a.244.244 0 0 1-.178.072.244.244 0 0 1-.178-.072.238.238 0 0 1-.073-.176v-3.389Zm9.51-.232c.26 0 .507.052.742.156a2.014 2.014 0 0 1 1.045 1.035c.105.235.158.485.158.751 0 .261-.052.508-.154.74a2.01 2.01 0 0 1-.417.611 1.944 1.944 0 0 1-1.39.568 1.984 1.984 0 0 1-1.377-.544 1.869 1.869 0 0 1-.575-1.375 1.9 1.9 0 0 1 .563-1.355 2.02 2.02 0 0 1 .624-.415c.24-.104.5-.161.781-.172Zm-.016.504c-.2 0-.387.037-.563.112a1.435 1.435 0 0 0-.774 1.882 1.45 1.45 0 0 0 1.337.875 1.46 1.46 0 0 0 1.345-.875c.076-.173.114-.358.114-.556a1.433 1.433 0 0 0-.891-1.327 1.453 1.453 0 0 0-.568-.111Zm2.658-.264a.244.244 0 0 1 .251-.248c.07 0 .13.024.178.072a.238.238 0 0 1 .073.176v2.19c0 .128.025.25.077.364a.936.936 0 0 0 .51.5.957.957 0 0 0 .733 0 .938.938 0 0 0 .583-.823v-2.231c0-.07.025-.128.074-.176a.244.244 0 0 1 .178-.072c.07 0 .13.024.178.072a.238.238 0 0 1 .073.176v3.38c0 .07-.024.129-.073.177a.244.244 0 0 1-.178.072.244.244 0 0 1-.178-.072.237.237 0 0 1-.073-.176v-.104a1.496 1.496 0 0 1-.43.256 1.398 1.398 0 0 1-.518.096 1.454 1.454 0 0 1-1.033-.42 1.432 1.432 0 0 1-.425-1.02v-2.189Zm-34.082-.232c.216 0 .41.032.583.096s.322.137.446.22c.124.083.22.165.287.248.068.082.102.145.102.188 0 .058-.025.109-.073.151a.24.24 0 0 1-.162.064.244.244 0 0 1-.179-.072 1.69 1.69 0 0 0-.461-.283 1.439 1.439 0 0 0-.56-.108c-.2 0-.387.037-.562.112a1.434 1.434 0 0 0-.774 1.882 1.45 1.45 0 0 0 1.337.875c.2 0 .386-.036.559-.108.172-.072.326-.172.461-.3a.256.256 0 0 1 .352-.004.22.22 0 0 1 .078.172c0 .043-.031.105-.093.188a1.07 1.07 0 0 1-.28.244 1.971 1.971 0 0 1-1.077.296 1.985 1.985 0 0 1-1.378-.544 1.864 1.864 0 0 1-.575-1.375 1.903 1.903 0 0 1 .563-1.355c.176-.172.384-.31.624-.415.24-.104.501-.161.782-.172Zm15.562-.192a1.036 1.036 0 0 1 .308-.743c.097-.096.21-.172.34-.228.13-.056.27-.084.421-.084.07 0 .13.024.179.072a.238.238 0 0 1 .073.176c0 .07-.025.128-.073.176a.243.243 0 0 1-.178.072.55.55 0 0 0-.401.164.535.535 0 0 0-.167.395v.168h.551c.07 0 .13.024.179.072a.238.238 0 0 1 .073.176c0 .07-.025.128-.073.176a.244.244 0 0 1-.179.072h-.55v3.14c0 .07-.025.129-.073.177a.244.244 0 0 1-.179.072.244.244 0 0 1-.178-.072.238.238 0 0 1-.073-.176v-3.141h-.332a.244.244 0 0 1-.178-.072.237.237 0 0 1-.073-.176c0-.07.024-.128.073-.176a.244.244 0 0 1 .178-.072h.332v-.168Zm12.84.32a.208.208 0 0 1 .09-.104.258.258 0 0 1 .138-.04c.075 0 .136.026.182.076a.24.24 0 0 1 .069.164.21.21 0 0 1-.025.096l-1.847 4.827c-.043.107-.118.16-.227.16a.234.234 0 0 1-.182-.076.25.25 0 0 1-.053-.26l.487-1.31-.576-1.555a199.465 199.465 0 0 0-.591-1.586 2.897 2.897 0 0 1-.065-.184.245.245 0 0 1-.024-.112c0-.07.02-.127.06-.172.041-.045.1-.068.175-.068.06 0 .11.014.154.04a.207.207 0 0 1 .089.104l1.053 2.837 1.094-2.837Z" fill="#ED3237"/></svg>